<svg width="512" height="512" viewBox="0 0 512 512" fill="none" xmlns="http://www.w3.org/2000/svg">
<path d="M13.3271 67.5259C13.9276 66.9254 30.4406 64.8237 49.8059 62.8722C69.1712 60.9207 86.5849 59.2694 88.5365 59.1192C90.3379 59.1192 93.04 60.1701 94.5412 61.8214C95.8923 63.3225 103.849 68.8769 112.105 73.981C120.362 79.2351 132.671 87.0413 139.577 91.5448C146.332 95.8983 159.543 102.954 159.392 103.254C159.092 103.704 147.083 99.8013 142.129 98.6004C137.175 97.3994 109.703 90.7942 81.0305 83.7387C52.2078 76.6831 28.4891 70.9786 28.0387 70.9786C27.5883 70.9786 27.2881 71.4289 27.2881 72.0294C27.2881 72.78 30.1404 74.4313 33.7432 75.7824C37.1959 77.1335 47.8543 81.3368 57.3118 84.9396C66.7693 88.6926 80.7303 94.0968 88.0861 96.9491C95.592 99.9515 112.706 106.557 126.366 111.961C140.027 117.215 153.238 123.22 154.138 123.52C154.889 123.82 144.08 139.733 131.771 160.599C119.311 181.466 108.953 199.63 108.502 200.081C108.052 200.681 88.0861 173.209 64.0671 140.483C40.1983 107.608 19.3318 79.5353 17.9808 78.0342C16.4796 76.6831 14.528 73.981 13.6273 72.0294C12.7266 70.228 12.5765 68.1263 13.3271 67.5259Z" fill="#1FC8AC"/>
<path d="M118.86 224.85C113.156 212.841 108.502 202.633 108.502 202.182C108.652 201.732 110.604 201.732 112.706 202.182C114.807 202.783 131.47 207.136 149.635 212.09C167.799 216.894 185.513 221.547 189.116 222.448C194.22 223.799 195.271 224.55 194.52 226.651C193.92 228.153 189.866 239.111 185.363 251.121C181.009 263.13 174.855 279.343 172.002 287.149C169 294.955 165.697 304.263 164.496 307.715C163.295 311.318 161.944 314.171 161.344 314.171C160.593 314.171 157.141 307.565 153.388 299.609C149.785 291.503 142.879 276.641 138.076 266.433C133.272 256.375 129.369 247.818 129.369 247.368C129.369 246.917 124.565 236.86 118.86 224.85Z" fill="#1FC8AC"/>
<path d="M324.973 301.711C324.673 301.561 328.426 292.854 333.079 282.345C340.736 265.232 341.936 263.28 344.639 264.031C346.44 264.631 355.147 267.033 364.304 269.435C373.461 271.987 386.522 275.44 393.577 277.392C400.633 279.193 414.444 282.946 424.352 285.498C434.259 288.2 443.417 290.902 444.618 291.653C446.119 292.553 443.867 293.004 437.562 293.154C432.308 293.154 427.804 293.754 427.354 294.655C426.904 295.556 424.352 295.706 421.799 295.256C419.097 294.805 408.439 295.106 398.081 296.006C387.723 296.907 367.156 298.558 352.295 299.909C337.433 301.11 325.123 302.011 324.973 301.711Z" fill="#1FC8AC"/>
<path d="M33.7432 75.7824C30.1404 74.4313 27.2881 72.78 27.2881 72.1795C27.2881 71.4289 27.5883 70.9786 28.0387 70.9786C28.489 70.9786 52.2078 76.6831 80.8804 83.7387C109.703 90.7942 146.933 99.8013 163.896 104.005C180.859 108.058 211.183 115.414 231.449 120.368C251.715 125.321 279.787 132.077 293.748 135.53C307.709 138.982 329.026 144.086 341.036 146.939C353.045 149.941 376.614 155.645 393.577 159.699L396.261 160.364C411.989 164.26 424.51 167.363 424.652 167.505C424.952 167.655 426.753 177.262 428.705 188.822C430.807 200.381 433.058 212.24 433.959 215.092C434.71 217.945 436.211 226.501 437.112 233.857C438.162 241.213 439.513 248.569 440.264 250.07C441.015 251.421 441.165 252.922 440.564 253.373C439.814 253.673 398.231 235.058 347.791 211.94C297.351 188.822 252.766 168.255 248.713 166.304C244.66 164.502 234.452 159.699 226.195 155.796C217.939 151.892 197.372 142.435 180.409 134.779C163.446 127.123 140.928 117.515 130.119 113.312C119.311 109.109 102.648 102.654 93.04 98.9006C83.2823 95.1477 67.3697 88.8427 57.612 85.0897C48.0045 81.3368 37.1959 77.1335 33.7432 75.7824Z" fill="#289972"/>
<path d="M37.7964 116.765C26.8377 96.9491 17.2302 79.8356 16.3295 78.9349C15.2786 77.7339 15.1285 76.9833 16.0292 76.9833C16.9299 76.9833 37.7964 104.755 62.5659 138.832C95.7421 184.318 106.25 193.025 110.604 202.332C113.906 209.388 120.662 228.753 122.013 231.605C123.514 234.458 124.265 237.16 123.964 237.61C123.664 238.06 119.161 235.659 114.057 232.506C108.802 229.354 102.648 225.15 100.096 223.349C97.0932 221.247 90.1878 210.439 79.9797 191.674C71.4229 176.062 62.8662 160.9 61.0648 158.047C59.2633 155.195 48.755 136.58 37.7964 116.765Z" fill="#289972"/>
<path d="M71.7232 265.832C75.7764 265.232 91.2386 263.13 105.95 261.179C120.812 259.377 133.422 258.176 134.022 258.627C134.623 259.077 140.477 271.387 147.233 285.948C153.988 300.66 159.392 313.27 159.392 314.171C159.392 315.071 159.092 315.672 158.642 315.672C158.191 315.672 148.284 310.868 136.424 305.013C124.715 299.159 103.398 288.65 89.1369 281.745C75.0258 274.839 63.6168 268.685 63.917 267.934C64.2173 267.334 67.8201 266.433 71.7232 265.832Z" fill="#289972"/>
<path d="M338.033 368.363C347.491 365.961 358.6 362.959 362.503 361.758L369.708 359.807L381.868 374.818C388.623 383.225 398.231 395.235 403.185 401.69C408.289 408.145 419.247 422.256 427.654 432.914C436.211 443.573 442.966 452.58 442.666 453.03C442.516 453.481 439.363 452.58 435.61 450.929C431.857 449.427 399.732 433.815 364.304 416.251C328.726 398.837 298.102 383.826 296 383.075C293.598 382.174 292.698 381.123 293.748 380.223C294.649 379.472 300.954 377.521 308.01 375.869C315.065 374.218 328.576 370.765 338.033 368.363Z" fill="#289972"/>
<path d="M108.652 71.5791C100.996 66.7753 94.6913 62.2717 94.6913 61.6713C94.5412 61.0708 99.1949 62.1216 104.899 63.7729C110.454 65.4242 121.563 68.7268 129.369 70.9786C137.175 73.2304 145.581 75.9325 148.134 76.6831C150.535 77.5838 166.748 82.3876 184.162 87.4916C201.576 92.5957 220.791 98.3002 226.946 100.252C233.101 102.203 244.96 105.806 253.216 108.208C261.473 110.76 274.383 114.513 281.739 116.765C289.095 119.017 300.354 122.319 306.509 124.271C312.663 126.222 331.879 131.927 349.292 137.031C366.706 142.135 383.519 147.239 386.822 148.44L386.823 148.44C390.125 149.491 393.427 150.541 394.328 150.541C395.229 150.541 395.679 148.74 395.379 146.788C395.179 144.286 395.929 142.835 397.63 142.435C399.132 141.985 422.25 141.234 449.121 140.634C478.094 140.033 498.36 140.183 498.96 140.934C499.561 141.684 493.256 159.248 484.999 179.815C476.593 200.531 469.537 217.644 469.237 218.095C468.787 218.545 460.98 217.644 451.673 215.993C442.366 214.492 434.41 212.841 433.809 212.24C433.058 211.79 430.957 201.582 428.855 189.572C426.753 177.563 424.952 167.655 424.652 167.505C424.51 167.363 411.988 164.26 396.259 160.363L393.577 159.699C376.614 155.645 353.045 149.941 341.036 146.939C329.026 144.086 307.709 138.982 293.748 135.53C279.637 132.077 251.715 125.321 231.449 120.368C211.183 115.414 185.813 109.259 175.155 106.707C156.69 102.353 154.739 101.453 139.126 91.2446C129.969 85.39 116.308 76.533 108.652 71.5791Z" fill="#31EBBD"/>
<path d="M108.652 200.681C108.502 200.381 118.56 182.817 131.02 161.8C143.48 140.784 154.138 123.52 154.589 123.52C155.189 123.52 168.85 129.525 184.913 136.881C200.975 144.236 220.341 153.093 227.696 156.546C235.052 159.999 244.51 164.502 248.713 166.304C252.701 168.224 295.926 188.164 345.359 210.968L347.791 212.09C398.231 235.208 440.264 253.072 440.865 254.123C441.465 255.174 442.516 264.782 443.717 273.338C445.068 281.745 446.119 289.251 446.119 290.152C446.119 291.052 444.918 291.202 443.417 290.752C442.066 290.302 433.809 288.05 425.102 285.648C416.395 283.396 401.233 279.343 391.325 276.641C381.418 274.089 354.396 266.883 331.278 260.878C308.16 254.874 280.088 247.518 268.979 244.365C257.87 241.213 243.909 237.61 238.205 236.109C232.5 234.608 219.89 231.305 210.433 228.603C200.975 226.051 187.465 222.298 180.409 220.347C173.353 218.545 154.438 213.441 138.376 209.088C122.313 204.734 108.953 200.981 108.652 200.681Z" fill="#31EBBD"/>
<path d="M353.796 299.759C368.658 298.558 386.522 296.907 393.577 296.156C400.633 295.556 410.691 295.106 425.853 295.556L448.371 312.519C460.68 321.827 471.489 329.933 472.089 330.534C472.84 330.984 472.54 335.487 471.639 340.441C470.588 345.395 468.036 357.555 465.634 367.463C463.382 377.37 459.629 393.583 457.378 403.491C455.126 413.399 451.523 428.711 449.421 437.718C447.17 446.575 445.068 453.781 444.618 453.781C444.167 453.631 436.661 444.323 427.804 433.064C418.797 421.806 402.284 400.639 391.025 386.227C379.616 371.666 366.706 355.453 362.503 350.199C358.149 344.795 348.692 333.086 341.636 323.928C334.431 314.771 327.825 306.515 326.925 305.464C326.024 304.413 325.574 303.212 326.024 302.912C326.474 302.461 338.934 301.11 353.796 299.759Z" fill="#31EBBD"/>
</svg>
